Motion_pl08
version=1
nRows=5
nColumns=43
inDegrees=yes
endheader
time	pelvis_tilt	pelvis_list	pelvis_rotation	pelvis_tx	pelvis_ty	pelvis_tz	hip_flexion_r	hip_adduction_r	hip_rotation_r	knee_angle_r	ankle_angle_r	subtalar_angle_r	mtp_angle_r	hip_flexion_l	hip_adduction_l	hip_rotation_l	knee_angle_l	ankle_angle_l	subtalar_angle_l	mtp_angle_l	lumbar_extension	lumbar_bending	lumbar_rotation	neck_flexion	neck_lateral_bending	neck_rotation	arm_flex_r	arm_add_r	arm_rot_r	elbow_flex_r	pro_sup_r	wrist_flex_r	wrist_dev_r	hand_finger_flex_r	arm_flex_l	arm_add_l	arm_rot_l	elbow_flex_l	pro_sup_l	wrist_flex_l	wrist_dev_l	hand_finger_flex_l
      0.00250000	     -0.78307649	     -2.50143377	     95.04430064	      0.01227800	      1.96677315	      1.93716022	     51.90543151	    -10.12129943	     -2.35079026	    -97.82901157	     25.96383029	     -6.40815363	    -14.94217887	     51.96313534	     -5.53637100	      1.36499968	    -92.64358411	     27.68358090	    -15.99909340	    -10.27324506	    -49.53502828	      1.89620532	     -2.80079687	     24.47334719	      1.95258214	    -18.52383828	     19.89603002	    -31.33491152	    -38.55335479	    102.61038021	    160.60517193	    -41.29868451	     15.65928383	      1.73636317	     20.41618935	    -29.40555675	    -45.31863552	    108.05658040	    160.56287189	    -28.27704508	     23.84804937	     23.24208633
      0.00500000	     -0.75949885	     -2.49837764	     95.04801082	      0.01224905	      1.96664922	      1.93708311	     51.89998670	    -10.10508710	     -2.39024936	    -97.84225104	     25.96088441	     -6.38588126	    -14.94281787	     51.97492567	     -5.55722410	      1.37346928	    -92.69460583	     27.80358337	    -15.92898038	    -10.25569780	    -49.52964802	      1.90783396	     -2.87542145	     24.52231610	      2.27267237	    -19.46389598	     19.92931471	    -31.31704933	    -38.44539304	    102.59468480	    160.59575780	    -41.25557454	     15.61677232	      1.72777166	     20.34246177	    -29.40954972	    -45.50079662	    108.10021583	    160.51911845	    -28.33339513	     23.72559500	     23.25972442
      0.00750000	     -0.72984302	     -2.48972850	     95.00351615	      0.01219379	      1.96657277	      1.93701868	     51.90012669	    -10.07451297	     -2.42317040	    -97.84295671	     25.95405748	     -6.35489881	    -14.94328744	     51.96591888	     -5.58896725	      1.40183375	    -92.72632369	     27.83689114	    -15.85307695	    -10.25168263	    -49.52718846	      1.91188302	     -2.90378761	     24.53190869	      2.43518872	    -20.57889534	     20.06382162	    -31.25468161	    -38.36526357	    102.55180291	    160.56826060	    -41.21652954	     15.58749400	      1.71560823	     20.17847925	    -29.44290925	    -45.63949632	    108.16428335	    160.45592970	    -28.36504983	     23.61935982	     23.29549011
      0.01000000	     -0.70015945	     -2.48523571	     94.93956173	      0.01226848	      1.96650391	      1.93696361	     51.90622021	    -10.04234572	     -2.47011164	    -97.84390072	     25.96243257	     -6.34426519	    -14.94278384	     51.95172007	     -5.63169390	      1.43613375	    -92.74438664	     27.87307544	    -15.80445923	    -10.25133054	    -49.53184726	      1.89691109	     -2.91367751	     24.52728123	      2.52544688	    -21.65786707	     20.14275810	    -31.23671530	    -38.27909398	    102.52158332	    160.54283554	    -41.18603665	     15.54092839	      1.69687920	     20.07409487	    -29.46123028	    -45.78541235	    108.22098949	    160.35799358	    -28.38137150	     23.53869484	     23.34763163
      0.01250000	     -0.66691801	     -2.45919797	     94.91595754	      0.01226755	      1.96634035	      1.93688310	     51.89160300	     -9.98478611	     -2.46710105	    -97.87599994	     25.96197625	     -6.33773766	    -14.94437715	     51.96352609	     -5.68751590	      1.43637666	    -92.83370668	     27.90233092	    -15.80644102	    -10.25270067	    -49.53725183	      1.92060596	     -2.95390354	     24.53918517	      2.72853436	    -22.51697592	     20.17312115	    -31.23396097	    -38.15936997	    102.55221636	    160.53188882	    -41.16373198	     15.49307378	      1.68880508	     20.01607290	    -29.47474422	    -45.95456167	    108.21180245	    160.29239735	    -28.39298702	     23.52289817	     23.37878058
